<svg width="400" height="400" viewBox="0 0 400 400" fill="none" xmlns="http://www.w3.org/2000/svg">
  <rect width="400" height="400" fill="#f1f5f9"/>
  <rect x="1" y="1" width="398" height="398" stroke="#cbd5e1" stroke-width="2"/>
  <g transform="translate(150, 150)">
    <path d="M50 75C72.0914 75 90 57.0914 90 35C90 12.9086 72.0914 -5 50 -5C27.9086 -5 10 12.9086 10 35C10 57.0914 27.9086 75 50 75Z" fill="#94a3b8"/>
    <path d="M90 65H10C4.47715 65 0 69.4772 0 75V95C0 100.523 4.47715 105 10 105H90C95.5228 105 100 100.523 100 95V75C100 69.4772 95.5228 65 90 65Z" fill="#94a3b8"/>
  </g>
  <text x="200" y="250" font-family="Arial, sans-serif" font-size="16" fill="#64748b" text-anchor="middle">Product Image</text>
</svg>